<svg xmlns:xlink="http://www.w3.org/1999/xlink" version="1.1" class="highcharts-root" style="font-family:&quot;Lucida Grande&quot;, &quot;Lucida Sans Unicode&quot;, Arial, Helvetica, sans-serif;font-size:12px;" xmlns="http://www.w3.org/2000/svg" width="960" height="540" viewBox="0 0 960 540"><desc>Created with Highcharts 7.1.3</desc><defs><clipPath id="highcharts-xazw26s-601-"><rect x="0" y="0" width="868" height="393" fill="none"></rect></clipPath></defs><rect fill="#ffffff" class="highcharts-background" x="0" y="0" width="960" height="540" rx="0" ry="0"></rect><rect fill="none" class="highcharts-plot-background" x="82" y="46" width="868" height="393"></rect><g class="highcharts-pane-group" data-z-index="0"></g><g class="highcharts-grid highcharts-xaxis-grid" data-z-index="1"><path fill="none" stroke-dasharray="none" data-z-index="1" class="highcharts-grid-line" d="M 124.5 46 L 124.5 439" opacity="1"></path><path fill="none" stroke-dasharray="none" data-z-index="1" class="highcharts-grid-line" d="M 168.5 46 L 168.5 439" opacity="1"></path><path fill="none" stroke-dasharray="none" data-z-index="1" class="highcharts-grid-line" d="M 211.5 46 L 211.5 439" opacity="1"></path><path fill="none" stroke-dasharray="none" data-z-index="1" class="highcharts-grid-line" d="M 255.5 46 L 255.5 439" opacity="1"></path><path fill="none" stroke-dasharray="none" data-z-index="1" class="highcharts-grid-line" d="M 298.5 46 L 298.5 439" opacity="1"></path><path fill="none" stroke-dasharray="none" data-z-index="1" class="highcharts-grid-line" d="M 341.5 46 L 341.5 439" opacity="1"></path><path fill="none" stroke-dasharray="none" data-z-index="1" class="highcharts-grid-line" d="M 385.5 46 L 385.5 439" opacity="1"></path><path fill="none" stroke-dasharray="none" data-z-index="1" class="highcharts-grid-line" d="M 428.5 46 L 428.5 439" opacity="1"></path><path fill="none" stroke-dasharray="none" data-z-index="1" class="highcharts-grid-line" d="M 472.5 46 L 472.5 439" opacity="1"></path><path fill="none" stroke-dasharray="none" data-z-index="1" class="highcharts-grid-line" d="M 515.5 46 L 515.5 439" opacity="1"></path><path fill="none" stroke-dasharray="none" data-z-index="1" class="highcharts-grid-line" d="M 558.5 46 L 558.5 439" opacity="1"></path><path fill="none" stroke-dasharray="none" data-z-index="1" class="highcharts-grid-line" d="M 602.5 46 L 602.5 439" opacity="1"></path><path fill="none" stroke-dasharray="none" data-z-index="1" class="highcharts-grid-line" d="M 645.5 46 L 645.5 439" opacity="1"></path><path fill="none" stroke-dasharray="none" data-z-index="1" class="highcharts-grid-line" d="M 689.5 46 L 689.5 439" opacity="1"></path><path fill="none" stroke-dasharray="none" data-z-index="1" class="highcharts-grid-line" d="M 732.5 46 L 732.5 439" opacity="1"></path><path fill="none" stroke-dasharray="none" data-z-index="1" class="highcharts-grid-line" d="M 775.5 46 L 775.5 439" opacity="1"></path><path fill="none" stroke-dasharray="none" data-z-index="1" class="highcharts-grid-line" d="M 819.5 46 L 819.5 439" opacity="1"></path><path fill="none" stroke-dasharray="none" data-z-index="1" class="highcharts-grid-line" d="M 862.5 46 L 862.5 439" opacity="1"></path><path fill="none" stroke-dasharray="none" data-z-index="1" class="highcharts-grid-line" d="M 906.5 46 L 906.5 439" opacity="1"></path><path fill="none" stroke-dasharray="none" data-z-index="1" class="highcharts-grid-line" d="M 949.5 46 L 949.5 439" opacity="1"></path><path fill="none" stroke-dasharray="none" data-z-index="1" class="highcharts-grid-line" d="M 81.5 46 L 81.5 439" opacity="1"></path></g><g class="highcharts-grid highcharts-yaxis-grid" data-z-index="1"><path fill="none" stroke="#e6e6e6" stroke-width="1" stroke-dasharray="none" data-z-index="1" class="highcharts-grid-line" d="M 82 439.5 L 950 439.5" opacity="1"></path><path fill="none" stroke="#e6e6e6" stroke-width="1" stroke-dasharray="none" data-z-index="1" class="highcharts-grid-line" d="M 82 360.5 L 950 360.5" opacity="1"></path><path fill="none" stroke="#e6e6e6" stroke-width="1" stroke-dasharray="none" data-z-index="1" class="highcharts-grid-line" d="M 82 282.5 L 950 282.5" opacity="1"></path><path fill="none" stroke="#e6e6e6" stroke-width="1" stroke-dasharray="none" data-z-index="1" class="highcharts-grid-line" d="M 82 203.5 L 950 203.5" opacity="1"></path><path fill="none" stroke="#e6e6e6" stroke-width="1" stroke-dasharray="none" data-z-index="1" class="highcharts-grid-line" d="M 82 125.5 L 950 125.5" opacity="1"></path><path fill="none" stroke="#e6e6e6" stroke-width="1" stroke-dasharray="none" data-z-index="1" class="highcharts-grid-line" d="M 82 45.5 L 950 45.5" opacity="1"></path></g><rect fill="none" class="highcharts-plot-border" data-z-index="1" x="82" y="46" width="868" height="393"></rect><g class="highcharts-axis highcharts-xaxis" data-z-index="2"><text x="516" data-z-index="7" text-anchor="middle" transform="translate(0,0)" class="highcharts-axis-title" style="color:#666666;font-weight:normal;fill:#666666;" y="478"><tspan>Kod  Program</tspan></text><path fill="none" class="highcharts-axis-line" stroke="#ccd6eb" stroke-width="1" data-z-index="7" d="M 82 439.5 L 950 439.5"></path></g><g class="highcharts-axis highcharts-yaxis" data-z-index="2"><text x="26.04443359375" data-z-index="7" text-anchor="middle" transform="translate(0,0) rotate(270 26.04443359375 242.5)" class="highcharts-axis-title" style="color:#666666;font-weight:normal;fill:#666666;" y="242.5"><tspan>Count(purata pngk), Count(markah akademik), Count(markah</tspan><tspan dy="15" x="26.04443359375">merit), Count(muet)</tspan></text><path fill="none" class="highcharts-axis-line" data-z-index="7" d="M 82 46 L 82 439"></path></g><g class="highcharts-series-group" data-z-index="3"><g data-z-index="0.1" class="highcharts-series highcharts-series-0 highcharts-line-series " transform="translate(82,46) scale(1 1)" clip-path="url(#highcharts-xazw26s-601-)"><path fill="none" d="M 21.7 172.92 L 65.1 282.96 L 108.5 322.26 L 151.9 314.4 L 195.3 94.32 L 238.7 290.82 L 282.1 282.96 L 325.5 70.74000000000001 L 368.9 165.06 L 412.3 282.96 L 455.7 180.78 L 499.1 227.94 L 542.5 267.24 L 585.9 227.94 L 629.3 337.98 L 672.7 251.51999999999998 L 716.1 353.7 L 759.5 243.66 L 802.9 369.42 L 846.3 141.48" class="highcharts-graph" data-z-index="1" stroke="#7cb5ec" stroke-width="2" stroke-dasharray="none"></path></g><g data-z-index="0.1" class="highcharts-markers highcharts-series-0 highcharts-line-series " transform="translate(82,46) scale(1 1)" clip-path="none"></g><g data-z-index="0.1" class="highcharts-series highcharts-series-1 highcharts-line-series " transform="translate(82,46) scale(1 1)" clip-path="url(#highcharts-xazw26s-601-)"><path fill="none" d="M 21.7 172.92 L 65.1 282.96 L 108.5 322.26 L 151.9 314.4 L 195.3 94.32 L 238.7 290.82 L 282.1 290.82 L 325.5 70.74000000000001 L 368.9 165.06 L 412.3 282.96 L 455.7 180.78 L 499.1 227.94 L 542.5 267.24 L 585.9 227.94 L 629.3 337.98 L 672.7 259.38 L 716.1 353.7 L 759.5 251.51999999999998 L 802.9 369.42 L 846.3 141.48" class="highcharts-graph" data-z-index="1" stroke="#90ed7d" stroke-width="2" stroke-dasharray="none"></path></g><g data-z-index="0.1" class="highcharts-markers highcharts-series-1 highcharts-line-series " transform="translate(82,46) scale(1 1)" clip-path="none"></g><g data-z-index="0.1" class="highcharts-series highcharts-series-2 highcharts-line-series " transform="translate(82,46) scale(1 1)" clip-path="url(#highcharts-xazw26s-601-)"><path fill="none" d="M 21.7 172.92 L 65.1 282.96 L 108.5 322.26 L 151.9 314.4 L 195.3 94.32 L 238.7 290.82 L 282.1 290.82 L 325.5 70.74000000000001 L 368.9 165.06 L 412.3 282.96 L 455.7 180.78 L 499.1 227.94 L 542.5 267.24 L 585.9 227.94 L 629.3 337.98 L 672.7 259.38 L 716.1 353.7 L 759.5 251.51999999999998 L 802.9 369.42 L 846.3 141.48" class="highcharts-graph" data-z-index="1" stroke="#f7a35c" stroke-width="2" stroke-dasharray="none"></path></g><g data-z-index="0.1" class="highcharts-markers highcharts-series-2 highcharts-line-series " transform="translate(82,46) scale(1 1)" clip-path="none"></g><g data-z-index="0.1" class="highcharts-series highcharts-series-3 highcharts-line-series " transform="translate(82,46) scale(1 1)" clip-path="url(#highcharts-xazw26s-601-)"><path fill="none" d="M 21.7 172.92 L 65.1 290.82 L 108.5 322.26 L 151.9 314.4 L 195.3 94.32 L 238.7 290.82 L 282.1 282.96 L 325.5 70.74000000000001 L 368.9 165.06 L 412.3 282.96 L 455.7 180.78 L 499.1 227.94 L 542.5 267.24 L 585.9 227.94 L 629.3 337.98 L 672.7 251.51999999999998 L 716.1 353.7 L 759.5 267.24 L 802.9 369.42 L 846.3 141.48" class="highcharts-graph" data-z-index="1" stroke="#434348" stroke-width="2" stroke-dasharray="none"></path></g><g data-z-index="0.1" class="highcharts-markers highcharts-series-3 highcharts-line-series " transform="translate(82,46) scale(1 1)" clip-path="none"></g></g><text x="480" text-anchor="middle" class="highcharts-title" data-z-index="4" style="color:#333333;font-size:14;font-weight:normal;fill:#333333;" y="21"><tspan>ExampleSet</tspan></text><text x="480" text-anchor="middle" class="highcharts-subtitle" data-z-index="4" style="color:#666666;fill:#666666;" y="45"></text><g class="highcharts-legend" data-z-index="7" transform="translate(169,496)"><rect fill="none" class="highcharts-legend-box" rx="0" ry="0" x="0" y="0" width="622" height="29" visibility="visible"></rect><g data-z-index="1"><g><g class="highcharts-legend-item highcharts-line-series highcharts-color-undefined highcharts-series-0" data-z-index="1" transform="translate(8,3)"><path fill="none" d="M 0 11 L 16 11" class="highcharts-graph" stroke-dasharray="none" stroke="#7cb5ec" stroke-width="2"></path><text x="21" style="color:#333333;cursor:pointer;font-size:12px;font-weight:bold;fill:#333333;" text-anchor="start" data-z-index="2" y="15"><tspan>Count(purata pngk)</tspan></text></g><g class="highcharts-legend-item highcharts-line-series highcharts-color-undefined highcharts-series-1" data-z-index="1" transform="translate(164.904296875,3)"><path fill="none" d="M 0 11 L 16 11" class="highcharts-graph" stroke-dasharray="none" stroke="#90ed7d" stroke-width="2"></path><text x="21" y="15" style="color:#333333;cursor:pointer;font-size:12px;font-weight:bold;fill:#333333;" text-anchor="start" data-z-index="2"><tspan>Count(markah akademik)</tspan></text></g><g class="highcharts-legend-item highcharts-line-series highcharts-color-undefined highcharts-series-2" data-z-index="1" transform="translate(354.6796875,3)"><path fill="none" d="M 0 11 L 16 11" class="highcharts-graph" stroke-dasharray="none" stroke="#f7a35c" stroke-width="2"></path><text x="21" y="15" style="color:#333333;cursor:pointer;font-size:12px;font-weight:bold;fill:#333333;" text-anchor="start" data-z-index="2"><tspan>Count(markah merit)</tspan></text></g><g class="highcharts-legend-item highcharts-line-series highcharts-color-undefined highcharts-series-3" data-z-index="1" transform="translate(519.01953125,3)"><path fill="none" d="M 0 11 L 16 11" class="highcharts-graph" stroke-dasharray="none" stroke="#434348" stroke-width="2"></path><text x="21" y="15" style="color:#333333;cursor:pointer;font-size:12px;font-weight:bold;fill:#333333;" text-anchor="start" data-z-index="2"><tspan>Count(muet)</tspan></text></g></g></g></g><g class="highcharts-axis-labels highcharts-xaxis-labels" data-z-index="7"><text x="103.7" style="color:#666666;cursor:default;font-size:11px;font-weight:normal;fill:#666666;" text-anchor="middle" transform="translate(0,0)" y="458" opacity="1">ZS02</text><text x="147.10000000000002" style="color:#666666;cursor:default;font-size:11px;font-weight:normal;fill:#666666;" text-anchor="middle" transform="translate(0,0)" y="458" opacity="1">ZP65</text><text x="190.5" style="color:#666666;cursor:default;font-size:11px;font-weight:normal;fill:#666666;" text-anchor="middle" transform="translate(0,0)" y="458" opacity="1">ZP64</text><text x="233.9" style="color:#666666;cursor:default;font-size:11px;font-weight:normal;fill:#666666;" text-anchor="middle" transform="translate(0,0)" y="458" opacity="1">ZP63</text><text x="277.3" style="color:#666666;cursor:default;font-size:11px;font-weight:normal;fill:#666666;" text-anchor="middle" transform="translate(0,0)" y="458" opacity="1">ZP58</text><text x="320.7" style="color:#666666;cursor:default;font-size:11px;font-weight:normal;fill:#666666;" text-anchor="middle" transform="translate(0,0)" y="458" opacity="1">ZP47</text><text x="364.1" style="color:#666666;cursor:default;font-size:11px;font-weight:normal;fill:#666666;" text-anchor="middle" transform="translate(0,0)" y="458" opacity="1">ZP45</text><text x="407.5" style="color:#666666;cursor:default;font-size:11px;font-weight:normal;fill:#666666;" text-anchor="middle" transform="translate(0,0)" y="458" opacity="1">ZP44</text><text x="450.90000000000003" style="color:#666666;cursor:default;font-size:11px;font-weight:normal;fill:#666666;" text-anchor="middle" transform="translate(0,0)" y="458" opacity="1">ZM00</text><text x="494.3" style="color:#666666;cursor:default;font-size:11px;font-weight:normal;fill:#666666;" text-anchor="middle" transform="translate(0,0)" y="458" opacity="1">ZK23</text><text x="537.6999999999999" style="color:#666666;cursor:default;font-size:11px;font-weight:normal;fill:#666666;" text-anchor="middle" transform="translate(0,0)" y="458" opacity="1">ZK09</text><text x="581.0999999999999" style="color:#666666;cursor:default;font-size:11px;font-weight:normal;fill:#666666;" text-anchor="middle" transform="translate(0,0)" y="458" opacity="1">ZK02</text><text x="624.5" style="color:#666666;cursor:default;font-size:11px;font-weight:normal;fill:#666666;" text-anchor="middle" transform="translate(0,0)" y="458" opacity="1">ZG57</text><text x="667.9" style="color:#666666;cursor:default;font-size:11px;font-weight:normal;fill:#666666;" text-anchor="middle" transform="translate(0,0)" y="458" opacity="1">ZG37</text><text x="711.3" style="color:#666666;cursor:default;font-size:11px;font-weight:normal;fill:#666666;" text-anchor="middle" transform="translate(0,0)" y="458" opacity="1">ZC33</text><text x="754.6999999999999" style="color:#666666;cursor:default;font-size:11px;font-weight:normal;fill:#666666;" text-anchor="middle" transform="translate(0,0)" y="458" opacity="1">ZC27</text><text x="798.0999999999999" style="color:#666666;cursor:default;font-size:11px;font-weight:normal;fill:#666666;" text-anchor="middle" transform="translate(0,0)" y="458" opacity="1">ZC21</text><text x="841.5" style="color:#666666;cursor:default;font-size:11px;font-weight:normal;fill:#666666;" text-anchor="middle" transform="translate(0,0)" y="458" opacity="1">ZC01</text><text x="884.9" style="color:#666666;cursor:default;font-size:11px;font-weight:normal;fill:#666666;" text-anchor="middle" transform="translate(0,0)" y="458" opacity="1">ZC00</text><text x="928.3" style="color:#666666;cursor:default;font-size:11px;font-weight:normal;fill:#666666;" text-anchor="middle" transform="translate(0,0)" y="458" opacity="1">ZB03</text></g><g class="highcharts-axis-labels highcharts-yaxis-labels" data-z-index="7"><text x="67" style="color:#666666;cursor:default;font-size:11px;font-weight:normal;fill:#666666;" text-anchor="end" transform="translate(0,0)" y="443" opacity="1">0</text><text x="67" style="color:#666666;cursor:default;font-size:11px;font-weight:normal;fill:#666666;" text-anchor="end" transform="translate(0,0)" y="364" opacity="1">10</text><text x="67" style="color:#666666;cursor:default;font-size:11px;font-weight:normal;fill:#666666;" text-anchor="end" transform="translate(0,0)" y="286" opacity="1">20</text><text x="67" style="color:#666666;cursor:default;font-size:11px;font-weight:normal;fill:#666666;" text-anchor="end" transform="translate(0,0)" y="207" opacity="1">30</text><text x="67" style="color:#666666;cursor:default;font-size:11px;font-weight:normal;fill:#666666;" text-anchor="end" transform="translate(0,0)" y="129" opacity="1">40</text><text x="67" style="color:#666666;cursor:default;font-size:11px;font-weight:normal;fill:#666666;" text-anchor="end" transform="translate(0,0)" y="50" opacity="1">50</text></g></svg>