<svg xmlns:xlink="http://www.w3.org/1999/xlink" version="1.1" class="highcharts-root" style="font-family:&quot;Lucida Grande&quot;, &quot;Lucida Sans Unicode&quot;, Arial, Helvetica, sans-serif;font-size:12px;" xmlns="http://www.w3.org/2000/svg" width="960" height="540" viewBox="0 0 960 540"><desc>Created with Highcharts 7.1.3</desc><defs><clipPath id="highcharts-s3wbg4u-83-"><rect x="0" y="0" width="867" height="390" fill="none"></rect></clipPath></defs><rect fill="#ffffff" class="highcharts-background" x="0" y="0" width="960" height="540" rx="0" ry="0"></rect><rect fill="none" class="highcharts-plot-background" x="83" y="47" width="867" height="390"></rect><g class="highcharts-pane-group" data-z-index="0"></g><g class="highcharts-grid highcharts-xaxis-grid" data-z-index="1"><path fill="none" stroke-dasharray="none" data-z-index="1" class="highcharts-grid-line" d="M 128.5 47 L 128.5 437" opacity="1"></path><path fill="none" stroke-dasharray="none" data-z-index="1" class="highcharts-grid-line" d="M 173.5 47 L 173.5 437" opacity="1"></path><path fill="none" stroke-dasharray="none" data-z-index="1" class="highcharts-grid-line" d="M 219.5 47 L 219.5 437" opacity="1"></path><path fill="none" stroke-dasharray="none" data-z-index="1" class="highcharts-grid-line" d="M 265.5 47 L 265.5 437" opacity="1"></path><path fill="none" stroke-dasharray="none" data-z-index="1" class="highcharts-grid-line" d="M 310.5 47 L 310.5 437" opacity="1"></path><path fill="none" stroke-dasharray="none" data-z-index="1" class="highcharts-grid-line" d="M 356.5 47 L 356.5 437" opacity="1"></path><path fill="none" stroke-dasharray="none" data-z-index="1" class="highcharts-grid-line" d="M 401.5 47 L 401.5 437" opacity="1"></path><path fill="none" stroke-dasharray="none" data-z-index="1" class="highcharts-grid-line" d="M 447.5 47 L 447.5 437" opacity="1"></path><path fill="none" stroke-dasharray="none" data-z-index="1" class="highcharts-grid-line" d="M 493.5 47 L 493.5 437" opacity="1"></path><path fill="none" stroke-dasharray="none" data-z-index="1" class="highcharts-grid-line" d="M 538.5 47 L 538.5 437" opacity="1"></path><path fill="none" stroke-dasharray="none" data-z-index="1" class="highcharts-grid-line" d="M 584.5 47 L 584.5 437" opacity="1"></path><path fill="none" stroke-dasharray="none" data-z-index="1" class="highcharts-grid-line" d="M 630.5 47 L 630.5 437" opacity="1"></path><path fill="none" stroke-dasharray="none" data-z-index="1" class="highcharts-grid-line" d="M 675.5 47 L 675.5 437" opacity="1"></path><path fill="none" stroke-dasharray="none" data-z-index="1" class="highcharts-grid-line" d="M 721.5 47 L 721.5 437" opacity="1"></path><path fill="none" stroke-dasharray="none" data-z-index="1" class="highcharts-grid-line" d="M 766.5 47 L 766.5 437" opacity="1"></path><path fill="none" stroke-dasharray="none" data-z-index="1" class="highcharts-grid-line" d="M 812.5 47 L 812.5 437" opacity="1"></path><path fill="none" stroke-dasharray="none" data-z-index="1" class="highcharts-grid-line" d="M 858.5 47 L 858.5 437" opacity="1"></path><path fill="none" stroke-dasharray="none" data-z-index="1" class="highcharts-grid-line" d="M 903.5 47 L 903.5 437" opacity="1"></path><path fill="none" stroke-dasharray="none" data-z-index="1" class="highcharts-grid-line" d="M 949.5 47 L 949.5 437" opacity="1"></path><path fill="none" stroke-dasharray="none" data-z-index="1" class="highcharts-grid-line" d="M 82.5 47 L 82.5 437" opacity="1"></path></g><g class="highcharts-grid highcharts-yaxis-grid" data-z-index="1"><path fill="none" stroke="#e6e6e6" stroke-width="1" stroke-dasharray="none" data-z-index="1" class="highcharts-grid-line" d="M 83 437.5 L 950 437.5" opacity="1"></path><path fill="none" stroke="#e6e6e6" stroke-width="1" stroke-dasharray="none" data-z-index="1" class="highcharts-grid-line" d="M 83 381.5 L 950 381.5" opacity="1"></path><path fill="none" stroke="#e6e6e6" stroke-width="1" stroke-dasharray="none" data-z-index="1" class="highcharts-grid-line" d="M 83 326.5 L 950 326.5" opacity="1"></path><path fill="none" stroke="#e6e6e6" stroke-width="1" stroke-dasharray="none" data-z-index="1" class="highcharts-grid-line" d="M 83 270.5 L 950 270.5" opacity="1"></path><path fill="none" stroke="#e6e6e6" stroke-width="1" stroke-dasharray="none" data-z-index="1" class="highcharts-grid-line" d="M 83 214.5 L 950 214.5" opacity="1"></path><path fill="none" stroke="#e6e6e6" stroke-width="1" stroke-dasharray="none" data-z-index="1" class="highcharts-grid-line" d="M 83 158.5 L 950 158.5" opacity="1"></path><path fill="none" stroke="#e6e6e6" stroke-width="1" stroke-dasharray="none" data-z-index="1" class="highcharts-grid-line" d="M 83 103.5 L 950 103.5" opacity="1"></path><path fill="none" stroke="#e6e6e6" stroke-width="1" stroke-dasharray="none" data-z-index="1" class="highcharts-grid-line" d="M 83 46.5 L 950 46.5" opacity="1"></path></g><rect fill="none" class="highcharts-plot-border" data-z-index="1" x="83" y="47" width="867" height="390"></rect><g class="highcharts-axis highcharts-xaxis" data-z-index="2"><text x="516.5" data-z-index="7" text-anchor="middle" transform="translate(0,0)" class="highcharts-axis-title" style="color:#666666;font-weight:normal;fill:#666666;" y="476"><tspan>Kod  Program</tspan></text><path fill="none" class="highcharts-axis-line" stroke="#ccd6eb" stroke-width="1" data-z-index="7" d="M 83 437.5 L 950 437.5"></path></g><g class="highcharts-axis highcharts-yaxis" data-z-index="2"><text x="26.416665077209473" data-z-index="7" text-anchor="middle" transform="translate(0,0) rotate(270 26.416665077209473 242)" class="highcharts-axis-title" style="color:#666666;font-weight:normal;fill:#666666;" y="242"><tspan>Count(purata pngk), Count(markah akademik), Count(markah</tspan><tspan dy="15" x="26.416665077209473">merit), Count(muet)</tspan></text><path fill="none" class="highcharts-axis-line" data-z-index="7" d="M 83 47 L 83 437"></path></g><g class="highcharts-series-group" data-z-index="3"><g data-z-index="0.1" class="highcharts-series highcharts-series-0 highcharts-line-series " transform="translate(83,47) scale(1 1)" clip-path="url(#highcharts-s3wbg4u-83-)"><path fill="none" d="M 22.815789473684 284.14285714285717 L 68.447368421053 351 L 114.07894736842 339.8571428571429 L 159.71052631579 334.2857142857143 L 205.34210526316 317.57142857142856 L 250.97368421053 323.1428571428571 L 296.60526315789 306.42857142857144 L 342.23684210526 323.1428571428571 L 387.86842105263 33.428571428571445 L 433.5 150.42857142857144 L 479.13157894737 228.42857142857144 L 524.76315789474 312 L 570.39473684211 256.2857142857143 L 616.02631578947 300.8571428571429 L 661.65789473684 362.14285714285717 L 707.28947368421 378.85714285714283 L 752.92105263158 373.2857142857143 L 798.55263157895 367.7142857142857 L 844.18421052632 378.85714285714283" class="highcharts-graph" data-z-index="1" stroke="#7cb5ec" stroke-width="2" stroke-dasharray="none"></path></g><g data-z-index="0.1" class="highcharts-markers highcharts-series-0 highcharts-line-series " transform="translate(83,47) scale(1 1)" clip-path="none"></g><g data-z-index="0.1" class="highcharts-series highcharts-series-1 highcharts-line-series " transform="translate(83,47) scale(1 1)" clip-path="url(#highcharts-s3wbg4u-83-)"><path fill="none" d="M 22.815789473684 284.14285714285717 L 68.447368421053 351 L 114.07894736842 339.8571428571429 L 159.71052631579 334.2857142857143 L 205.34210526316 317.57142857142856 L 250.97368421053 323.1428571428571 L 296.60526315789 306.42857142857144 L 342.23684210526 323.1428571428571 L 387.86842105263 50.14285714285717 L 433.5 156 L 479.13157894737 228.42857142857144 L 524.76315789474 317.57142857142856 L 570.39473684211 256.2857142857143 L 616.02631578947 300.8571428571429 L 661.65789473684 362.14285714285717 L 707.28947368421 378.85714285714283 L 752.92105263158 373.2857142857143 L 798.55263157895 367.7142857142857 L 844.18421052632 378.85714285714283" class="highcharts-graph" data-z-index="1" stroke="#90ed7d" stroke-width="2" stroke-dasharray="none"></path></g><g data-z-index="0.1" class="highcharts-markers highcharts-series-1 highcharts-line-series " transform="translate(83,47) scale(1 1)" clip-path="none"></g><g data-z-index="0.1" class="highcharts-series highcharts-series-2 highcharts-line-series " transform="translate(83,47) scale(1 1)" clip-path="url(#highcharts-s3wbg4u-83-)"><path fill="none" d="M 22.815789473684 284.14285714285717 L 68.447368421053 351 L 114.07894736842 339.8571428571429 L 159.71052631579 334.2857142857143 L 205.34210526316 317.57142857142856 L 250.97368421053 323.1428571428571 L 296.60526315789 306.42857142857144 L 342.23684210526 323.1428571428571 L 387.86842105263 50.14285714285717 L 433.5 156 L 479.13157894737 228.42857142857144 L 524.76315789474 317.57142857142856 L 570.39473684211 256.2857142857143 L 616.02631578947 300.8571428571429 L 661.65789473684 362.14285714285717 L 707.28947368421 378.85714285714283 L 752.92105263158 373.2857142857143 L 798.55263157895 367.7142857142857 L 844.18421052632 378.85714285714283" class="highcharts-graph" data-z-index="1" stroke="#f7a35c" stroke-width="2" stroke-dasharray="none"></path></g><g data-z-index="0.1" class="highcharts-markers highcharts-series-2 highcharts-line-series " transform="translate(83,47) scale(1 1)" clip-path="none"></g><g data-z-index="0.1" class="highcharts-series highcharts-series-3 highcharts-line-series " transform="translate(83,47) scale(1 1)" clip-path="url(#highcharts-s3wbg4u-83-)"><path fill="none" d="M 22.815789473684 284.14285714285717 L 68.447368421053 351 L 114.07894736842 339.8571428571429 L 159.71052631579 334.2857142857143 L 205.34210526316 317.57142857142856 L 250.97368421053 323.1428571428571 L 296.60526315789 306.42857142857144 L 342.23684210526 323.1428571428571 L 387.86842105263 39 L 433.5 150.42857142857144 L 479.13157894737 228.42857142857144 L 524.76315789474 317.57142857142856 L 570.39473684211 261.8571428571429 L 616.02631578947 300.8571428571429 L 661.65789473684 362.14285714285717 L 707.28947368421 378.85714285714283 L 752.92105263158 373.2857142857143 L 798.55263157895 367.7142857142857 L 844.18421052632 378.85714285714283" class="highcharts-graph" data-z-index="1" stroke="#434348" stroke-width="2" stroke-dasharray="none"></path></g><g data-z-index="0.1" class="highcharts-markers highcharts-series-3 highcharts-line-series " transform="translate(83,47) scale(1 1)" clip-path="none"></g></g><text x="480" text-anchor="middle" class="highcharts-title" data-z-index="4" style="color:#333333;font-size:14;font-weight:normal;fill:#333333;" y="21"><tspan>ExampleSet</tspan></text><text x="480" text-anchor="middle" class="highcharts-subtitle" data-z-index="4" style="color:#666666;fill:#666666;" y="46"></text><g class="highcharts-legend" data-z-index="7" transform="translate(170,495)"><rect fill="none" class="highcharts-legend-box" rx="0" ry="0" x="0" y="0" width="620" height="30" visibility="visible"></rect><g data-z-index="1"><g><g class="highcharts-legend-item highcharts-line-series highcharts-color-undefined highcharts-series-0" data-z-index="1" transform="translate(8,3)"><path fill="none" d="M 0 11 L 16 11" class="highcharts-graph" stroke-dasharray="none" stroke="#7cb5ec" stroke-width="2"></path><text x="21" style="color:#333333;cursor:pointer;font-size:12px;font-weight:bold;fill:#333333;" text-anchor="start" data-z-index="2" y="15"><tspan>Count(purata pngk)</tspan></text></g><g class="highcharts-legend-item highcharts-line-series highcharts-color-undefined highcharts-series-1" data-z-index="1" transform="translate(164.23763275146484,3)"><path fill="none" d="M 0 11 L 16 11" class="highcharts-graph" stroke-dasharray="none" stroke="#90ed7d" stroke-width="2"></path><text x="21" y="15" style="color:#333333;cursor:pointer;font-size:12px;font-weight:bold;fill:#333333;" text-anchor="start" data-z-index="2"><tspan>Count(markah akademik)</tspan></text></g><g class="highcharts-legend-item highcharts-line-series highcharts-color-undefined highcharts-series-2" data-z-index="1" transform="translate(353.3463668823242,3)"><path fill="none" d="M 0 11 L 16 11" class="highcharts-graph" stroke-dasharray="none" stroke="#f7a35c" stroke-width="2"></path><text x="21" y="15" style="color:#333333;cursor:pointer;font-size:12px;font-weight:bold;fill:#333333;" text-anchor="start" data-z-index="2"><tspan>Count(markah merit)</tspan></text></g><g class="highcharts-legend-item highcharts-line-series highcharts-color-undefined highcharts-series-3" data-z-index="1" transform="translate(517.0195465087891,3)"><path fill="none" d="M 0 11 L 16 11" class="highcharts-graph" stroke-dasharray="none" stroke="#434348" stroke-width="2"></path><text x="21" y="15" style="color:#333333;cursor:pointer;font-size:12px;font-weight:bold;fill:#333333;" text-anchor="start" data-z-index="2"><tspan>Count(muet)</tspan></text></g></g></g></g><g class="highcharts-axis-labels highcharts-xaxis-labels" data-z-index="7"><text x="105.8157894736858" style="color:#666666;cursor:default;font-size:11px;font-weight:normal;fill:#666666;" text-anchor="middle" transform="translate(0,0)" y="456" opacity="1">ZK09</text><text x="151.44736842105578" style="color:#666666;cursor:default;font-size:11px;font-weight:normal;fill:#666666;" text-anchor="middle" transform="translate(0,0)" y="456" opacity="1">ZK23</text><text x="197.0789473684258" style="color:#666666;cursor:default;font-size:11px;font-weight:normal;fill:#666666;" text-anchor="middle" transform="translate(0,0)" y="456" opacity="1">ZC01</text><text x="242.71052631578578" style="color:#666666;cursor:default;font-size:11px;font-weight:normal;fill:#666666;" text-anchor="middle" transform="translate(0,0)" y="456" opacity="1">ZC21</text><text x="288.34210526315576" style="color:#666666;cursor:default;font-size:11px;font-weight:normal;fill:#666666;" text-anchor="middle" transform="translate(0,0)" y="456" opacity="1">ZC27</text><text x="333.9736842105258" style="color:#666666;cursor:default;font-size:11px;font-weight:normal;fill:#666666;" text-anchor="middle" transform="translate(0,0)" y="456" opacity="1">ZC33</text><text x="379.60526315789576" style="color:#666666;cursor:default;font-size:11px;font-weight:normal;fill:#666666;" text-anchor="middle" transform="translate(0,0)" y="456" opacity="1">ZG37</text><text x="425.2368421052658" style="color:#666666;cursor:default;font-size:11px;font-weight:normal;fill:#666666;" text-anchor="middle" transform="translate(0,0)" y="456" opacity="1">ZP44</text><text x="470.86842105263577" style="color:#666666;cursor:default;font-size:11px;font-weight:normal;fill:#666666;" text-anchor="middle" transform="translate(0,0)" y="456" opacity="1">ZP45</text><text x="516.4999999999958" style="color:#666666;cursor:default;font-size:11px;font-weight:normal;fill:#666666;" text-anchor="middle" transform="translate(0,0)" y="456" opacity="1">ZP47</text><text x="562.1315789473658" style="color:#666666;cursor:default;font-size:11px;font-weight:normal;fill:#666666;" text-anchor="middle" transform="translate(0,0)" y="456" opacity="1">ZP58</text><text x="607.7631578947359" style="color:#666666;cursor:default;font-size:11px;font-weight:normal;fill:#666666;" text-anchor="middle" transform="translate(0,0)" y="456" opacity="1">ZP63</text><text x="653.3947368421059" style="color:#666666;cursor:default;font-size:11px;font-weight:normal;fill:#666666;" text-anchor="middle" transform="translate(0,0)" y="456" opacity="1">ZP64</text><text x="699.0263157894758" style="color:#666666;cursor:default;font-size:11px;font-weight:normal;fill:#666666;" text-anchor="middle" transform="translate(0,0)" y="456" opacity="1">ZP65</text><text x="744.6578947368458" style="color:#666666;cursor:default;font-size:11px;font-weight:normal;fill:#666666;" text-anchor="middle" transform="translate(0,0)" y="456" opacity="1">ZB03</text><text x="790.2894736842059" style="color:#666666;cursor:default;font-size:11px;font-weight:normal;fill:#666666;" text-anchor="middle" transform="translate(0,0)" y="456" opacity="1">ZS02</text><text x="835.9210526315759" style="color:#666666;cursor:default;font-size:11px;font-weight:normal;fill:#666666;" text-anchor="middle" transform="translate(0,0)" y="456" opacity="1">ZG57</text><text x="881.5526315789458" style="color:#666666;cursor:default;font-size:11px;font-weight:normal;fill:#666666;" text-anchor="middle" transform="translate(0,0)" y="456" opacity="1">ZM00</text><text x="927.1842105263158" style="color:#666666;cursor:default;font-size:11px;font-weight:normal;fill:#666666;" text-anchor="middle" transform="translate(0,0)" y="456" opacity="1">ZK02</text></g><g class="highcharts-axis-labels highcharts-yaxis-labels" data-z-index="7"><text x="68" style="color:#666666;cursor:default;font-size:11px;font-weight:normal;fill:#666666;" text-anchor="end" transform="translate(0,0)" y="441" opacity="1">0</text><text x="68" style="color:#666666;cursor:default;font-size:11px;font-weight:normal;fill:#666666;" text-anchor="end" transform="translate(0,0)" y="385" opacity="1">10</text><text x="68" style="color:#666666;cursor:default;font-size:11px;font-weight:normal;fill:#666666;" text-anchor="end" transform="translate(0,0)" y="330" opacity="1">20</text><text x="68" style="color:#666666;cursor:default;font-size:11px;font-weight:normal;fill:#666666;" text-anchor="end" transform="translate(0,0)" y="274" opacity="1">30</text><text x="68" style="color:#666666;cursor:default;font-size:11px;font-weight:normal;fill:#666666;" text-anchor="end" transform="translate(0,0)" y="218" opacity="1">40</text><text x="68" style="color:#666666;cursor:default;font-size:11px;font-weight:normal;fill:#666666;" text-anchor="end" transform="translate(0,0)" y="162" opacity="1">50</text><text x="68" style="color:#666666;cursor:default;font-size:11px;font-weight:normal;fill:#666666;" text-anchor="end" transform="translate(0,0)" y="107" opacity="1">60</text><text x="68" style="color:#666666;cursor:default;font-size:11px;font-weight:normal;fill:#666666;" text-anchor="end" transform="translate(0,0)" y="51" opacity="1">70</text></g></svg>